<?xml version="1.0" standalone="no"?>
<!DOCTYPE svg PUBLIC "-//W3C//DTD SVG 20010904//EN"
 "http://www.w3.org/TR/2001/REC-SVG-20010904/DTD/svg10.dtd">
<svg version="1.0" xmlns="http://www.w3.org/2000/svg"
 width="500.000000pt" height="500.000000pt" viewBox="0 0 500.000000 500.000000"
 preserveAspectRatio="xMidYMid meet">

<g transform="translate(0.000000,500.000000) scale(0.100000,-0.100000)"
fill="#000000" stroke="none">
<path d="M824 3211 l-289 -167 -3 -335 -2 -335 157 -91 c141 -81 160 -89 185
-81 15 6 26 13 23 18 -2 4 -66 42 -140 84 -74 43 -133 81 -130 85 2 5 248 149
545 321 297 172 540 316 540 319 0 3 -113 71 -252 151 -138 80 -273 157 -298
172 l-47 27 -289 -168z m266 -182 c0 -244 -2 -271 -16 -265 -33 13 -454 258
-454 264 1 7 449 270 463 271 4 1 7 -121 7 -270z m353 101 c91 -52 167 -97
167 -100 0 -5 -455 -270 -464 -270 -3 0 -6 122 -6 271 l0 271 68 -39 c37 -21
143 -81 235 -133z m-391 -418 c5 -5 -416 -257 -452 -270 -7 -3 -21 516 -13
530 3 6 446 -242 465 -260z"/>
<path d="M1892 2668 c-16 -16 -16 -132 1 -146 7 -6 30 -12 52 -14 38 -3 40 -5
43 -40 3 -36 2 -38 -27 -38 -21 0 -31 5 -31 15 0 9 -9 15 -25 15 -21 0 -25 -5
-25 -30 0 -36 23 -50 80 -50 71 0 80 11 80 90 0 78 -10 90 -74 90 -34 0 -36 2
-36 35 0 32 2 35 30 35 17 0 30 -4 30 -10 0 -5 11 -10 25 -10 19 0 25 5 25 23
0 13 -5 28 -12 35 -16 16 -120 16 -136 0z"/>
<path d="M2070 2530 l0 -150 30 0 30 0 0 78 1 77 30 -77 c28 -72 33 -78 59
-78 l28 0 4 78 c2 42 2 110 0 150 -3 69 -4 72 -27 72 -24 0 -25 -2 -25 -71 0
-38 -4 -68 -9 -65 -5 3 -19 35 -32 71 -22 62 -24 65 -56 65 l-33 0 0 -150z"/>
<path d="M2336 2658 c-3 -13 -15 -72 -26 -133 -12 -60 -24 -118 -26 -127 -4
-14 1 -18 25 -18 24 0 31 4 31 19 0 36 12 51 40 51 28 0 40 -15 40 -51 0 -14
7 -19 30 -19 26 0 30 3 25 23 -7 28 -55 269 -55 273 0 2 -18 4 -40 4 -33 0
-40 -4 -44 -22z m54 -95 c0 -10 3 -28 6 -40 5 -19 2 -23 -16 -23 -18 0 -21 4
-16 23 3 12 6 30 6 40 0 9 5 17 10 17 6 0 10 -8 10 -17z"/>
<path d="M2508 2608 c-2 -40 -2 -108 0 -150 3 -75 4 -78 28 -78 22 0 24 4 24
50 l0 50 35 0 c20 0 47 7 60 16 23 15 25 23 25 87 0 87 -10 96 -102 97 l-67 0
-3 -72z m112 -23 c0 -43 -1 -45 -30 -45 -29 0 -30 2 -30 45 0 43 1 45 30 45
29 0 30 -2 30 -45z"/>
<path d="M2708 2605 c-2 -41 -2 -109 0 -150 3 -71 5 -75 27 -75 23 0 24 3 27
78 l3 77 30 -77 c27 -71 32 -78 57 -78 26 0 26 1 30 75 2 41 2 109 0 150 -3
71 -5 75 -27 75 -23 0 -24 -4 -27 -72 l-3 -73 -28 73 c-26 66 -31 72 -57 72
-28 0 -28 0 -32 -75z"/>
<path d="M2927 2662 c-11 -12 -17 -36 -17 -69 0 -60 18 -80 75 -85 38 -3 40
-4 40 -38 0 -31 -3 -35 -27 -38 -20 -2 -28 1 -28 12 0 11 -9 16 -30 16 -25 0
-30 -4 -30 -23 0 -37 30 -57 86 -57 71 1 84 15 84 87 0 71 -17 93 -73 93 -36
0 -37 1 -37 35 0 32 2 35 30 35 17 0 30 -4 30 -10 0 -5 11 -10 25 -10 19 0 25
5 25 23 0 36 -19 47 -80 47 -42 0 -61 -5 -73 -18z"/>
<path d="M3108 2608 c-2 -40 -2 -108 0 -150 l4 -78 29 0 29 0 0 65 0 65 30 0
30 0 0 -65 0 -65 30 0 30 0 0 150 0 150 -30 0 -30 0 0 -60 0 -60 -30 0 -30 0
0 60 c0 60 0 60 -30 60 l-29 0 -3 -72z"/>
<path d="M3375 2668 c-5 -17 -55 -269 -55 -280 0 -4 11 -8 25 -8 19 0 26 7 33
33 7 26 14 33 39 35 28 3 31 0 37 -32 6 -30 11 -36 31 -36 32 0 32 4 -2 168
l-27 132 -38 0 c-22 0 -40 -5 -43 -12z m54 -140 c1 -19 -4 -28 -14 -28 -17 0
-18 12 -8 61 5 28 7 30 14 14 4 -11 8 -32 8 -47z"/>
<path d="M3548 2608 c-2 -40 -1 -108 1 -150 3 -75 4 -78 27 -78 23 0 24 3 24
61 0 76 16 75 44 -4 19 -51 24 -57 48 -57 34 0 34 3 7 69 l-22 52 22 22 c16
18 21 36 21 74 0 69 -17 83 -102 83 l-66 0 -4 -72z m112 -13 c0 -32 -2 -35
-30 -35 -28 0 -30 3 -30 35 0 32 2 35 30 35 28 0 30 -3 30 -35z"/>
<path d="M3758 2608 c-2 -40 -1 -108 1 -150 l3 -78 69 0 c67 0 69 1 69 25 0
23 -4 25 -46 25 l-45 0 3 38 c3 35 5 37 41 40 32 3 37 7 37 28 0 21 -4 24 -40
24 -39 0 -40 1 -40 35 0 35 0 35 45 35 41 0 45 2 45 25 0 24 -2 25 -69 25
l-69 0 -4 -72z"/>
<path d="M1221 2641 c-17 -11 -15 -12 162 -111 64 -36 117 -67 116 -70 0 -3
-82 -52 -182 -110 -100 -57 -354 -204 -564 -326 l-383 -221 306 -177 c168 -97
309 -176 313 -176 3 0 137 76 296 168 l290 169 3 344 2 344 -154 88 c-151 86
-177 96 -205 78z m309 -512 c0 -154 -3 -278 -7 -276 -5 3 -109 62 -233 132
-124 70 -230 133 -237 139 -9 8 48 46 225 148 130 76 240 137 245 138 4 0 7
-126 7 -281z m-570 -328 l0 -280 -240 137 c-132 75 -238 141 -237 145 2 8 457
276 470 277 4 0 7 -126 7 -279z m313 137 c126 -72 225 -134 220 -138 -8 -7
-413 -244 -460 -269 l-23 -12 0 282 c0 262 1 281 17 275 10 -4 120 -66 246
-138z"/>
<path d="M1774 2256 c-3 -8 -4 -27 -2 -43 2 -22 9 -29 31 -31 16 -2 27 -9 27
-19 0 -12 -7 -14 -31 -9 -25 5 -30 3 -27 -12 2 -12 13 -17 38 -17 34 0 35 1
35 40 0 34 -3 40 -22 43 -15 2 -23 10 -23 23 0 22 11 24 28 7 15 -15 26 -4 19
17 -8 19 -66 20 -73 1z"/>
<path d="M1869 2233 c-2 -21 -3 -55 -1 -75 3 -36 5 -38 38 -38 24 0 34 5 34
15 0 9 -9 15 -25 15 -16 0 -25 6 -25 15 0 8 9 15 20 15 11 0 20 7 20 15 0 9
-9 15 -21 15 -28 0 -21 34 9 38 35 5 26 22 -12 22 -32 0 -34 -2 -37 -37z"/>
<path d="M1959 2233 c-2 -21 -3 -55 -1 -75 3 -36 5 -38 38 -38 39 0 44 23 6
28 -28 4 -29 32 -2 32 11 0 20 7 20 15 0 9 -9 15 -21 15 -28 0 -21 34 9 38 35
5 26 22 -12 22 -32 0 -34 -2 -37 -37z"/>
<path d="M2090 2195 c0 -60 3 -75 15 -75 12 0 15 15 15 75 0 60 -3 75 -15 75
-12 0 -15 -15 -15 -75z"/>
<path d="M2130 2261 c0 -5 7 -11 15 -15 11 -4 15 -21 15 -66 0 -47 3 -60 15
-60 12 0 15 14 15 65 0 51 3 65 15 65 8 0 15 5 15 10 0 6 -20 10 -45 10 -25 0
-45 -4 -45 -9z"/>
<path d="M2297 2263 c-11 -11 -8 -58 5 -71 7 -7 20 -12 30 -12 10 0 18 -7 18
-16 0 -12 -7 -14 -30 -9 -17 4 -30 2 -30 -3 0 -18 29 -33 57 -30 22 2 29 9 31
31 4 33 -13 57 -39 57 -11 0 -19 6 -19 13 0 22 11 27 31 14 21 -13 34 -5 26
18 -6 15 -67 22 -80 8z"/>
<path d="M2390 2195 c0 -60 3 -75 15 -75 11 0 15 11 16 38 l0 37 16 -37 c26
-64 43 -49 43 37 0 60 -3 75 -15 75 -10 0 -15 -10 -15 -32 l-1 -33 -14 33 c-8
17 -21 32 -30 32 -12 0 -15 -14 -15 -75z"/>
<path d="M2511 2199 c-12 -75 -8 -96 13 -66 17 22 25 22 42 0 22 -31 27 -7 13
66 -11 63 -15 71 -34 71 -20 0 -23 -8 -34 -71z m36 -11 c-3 -7 -5 -2 -5 12 0
14 2 19 5 13 2 -7 2 -19 0 -25z"/>
<path d="M2610 2196 c0 -61 3 -76 15 -76 9 0 15 9 15 24 0 18 6 25 23 28 19 3
22 9 22 48 0 45 0 45 -37 48 l-38 3 0 -75z m58 26 c2 -15 -2 -22 -12 -22 -11
0 -16 9 -16 26 0 31 23 28 28 -4z"/>
<path d="M2760 2195 c0 -77 15 -104 21 -37 6 54 -1 112 -12 112 -5 0 -9 -34
-9 -75z"/>
<path d="M2800 2261 c0 -5 7 -11 15 -15 11 -4 15 -21 15 -66 0 -33 4 -60 10
-60 9 0 14 47 10 98 -1 12 6 25 14 28 29 11 16 24 -24 24 -22 0 -40 -4 -40 -9z"/>
<path d="M2967 2263 c-4 -3 -7 -21 -7 -40 0 -29 4 -34 30 -39 17 -4 30 -13 30
-21 0 -11 -7 -13 -31 -8 -26 6 -30 4 -27 -12 2 -13 12 -18 38 -18 34 0 35 1
35 40 0 34 -3 40 -22 43 -15 2 -23 10 -23 23 0 22 11 24 28 7 15 -15 26 -4 19
17 -6 15 -57 21 -70 8z"/>
<path d="M3060 2195 c0 -60 3 -75 15 -75 10 0 15 10 15 30 0 20 5 30 15 30 10
0 15 -10 15 -30 0 -20 5 -30 15 -30 12 0 15 15 15 75 0 60 -3 75 -15 75 -10 0
-15 -10 -15 -30 0 -20 -5 -30 -15 -30 -10 0 -15 10 -15 30 0 20 -5 30 -15 30
-12 0 -15 -15 -15 -75z"/>
<path d="M3181 2209 c-7 -34 -15 -67 -18 -75 -3 -8 1 -14 11 -14 9 0 16 7 16
15 0 8 9 15 20 15 11 0 20 -7 20 -15 0 -8 7 -15 15 -15 19 0 19 -2 -10 128 -3
13 -13 22 -24 22 -15 0 -21 -13 -30 -61z m35 -26 c-10 -10 -19 5 -10 18 6 11
8 11 12 0 2 -7 1 -15 -2 -18z"/>
<path d="M3279 2233 c-6 -55 1 -113 12 -113 5 0 9 14 9 30 0 17 4 30 8 30 4 0
13 -13 19 -30 6 -16 16 -30 22 -30 14 0 14 16 0 42 -8 15 -8 22 1 28 6 4 10
22 8 41 -3 31 -6 34 -39 37 -36 3 -37 2 -40 -35z m51 -3 c0 -11 -7 -20 -15
-20 -15 0 -21 21 -8 33 12 13 23 7 23 -13z"/>
<path d="M3380 2195 l0 -75 35 0 c24 0 35 5 35 15 0 8 -9 15 -20 15 -11 0 -20
7 -20 15 0 8 9 15 20 15 11 0 20 7 20 15 0 8 -9 15 -20 15 -13 0 -20 7 -20 20
0 13 7 20 20 20 11 0 20 5 20 10 0 6 -16 10 -35 10 l-35 0 0 -75z"/>
<path d="M3519 2233 c-5 -53 1 -113 11 -113 10 0 16 60 12 113 -2 20 -7 37
-12 37 -4 0 -9 -17 -11 -37z"/>
<path d="M3560 2261 c0 -5 6 -11 14 -14 10 -4 14 -24 15 -63 0 -55 5 -73 16
-62 3 3 6 31 6 62 1 39 5 59 15 63 28 10 13 23 -26 23 -22 0 -40 -4 -40 -9z"/>
<path d="M3660 2135 c0 -8 5 -15 10 -15 6 0 10 7 10 15 0 8 -4 15 -10 15 -5 0
-10 -7 -10 -15z"/>
<path d="M3700 2136 c0 -9 7 -16 16 -16 17 0 14 22 -4 28 -7 2 -12 -3 -12 -12z"/>
<path d="M3740 2136 c0 -9 7 -16 16 -16 17 0 14 22 -4 28 -7 2 -12 -3 -12 -12z"/>
<path d="M3780 2135 c0 -8 7 -15 15 -15 8 0 15 7 15 15 0 8 -7 15 -15 15 -8 0
-15 -7 -15 -15z"/>
<path d="M3827 2143 c-12 -11 -8 -23 8 -23 8 0 15 7 15 15 0 16 -12 20 -23 8z"/>
</g>
</svg>
